<svg width="394" height="394" viewBox="0 -4.5 394 394" fill="none" xmlns="http://www.w3.org/2000/svg">
<g opacity="0.34">
<path d="M229.09 159.06C238.381 158.487 250.618 158.823 259.978 159.149C273.098 159.578 286.209 160.299 299.296 161.311C305.094 161.769 316.77 162.422 322.034 163.447C322.396 168.344 322.475 173.097 322.581 178.011C323.237 191.899 322.62 206.328 323.296 220.035C326.519 219.544 331.842 219.313 335.167 219.109C342.204 218.549 349.23 217.873 356.244 217.075C366.741 215.985 376.569 213.661 385.237 221.268C390.648 226.017 393.209 233.284 393.595 240.416C393.931 258.213 387.151 283.152 375.372 296.365C366.962 305.804 357.012 307.94 345.104 308.932C340.454 309.317 336.005 309.97 331.341 310.22C327.323 310.698 323.299 311.113 319.269 311.463C318.863 312.61 318.6 320.483 318.461 322.026C316.546 343.573 316.471 361.413 294.099 371.989C280.339 379.649 250.981 387.529 236.14 383.004C230.372 381.204 225.564 377.174 222.789 371.805C218.346 363.229 221.111 356.087 222.166 347.04C223.392 336.524 225.748 324.876 225.949 314.35C225.857 312.333 226.671 305.145 226.888 302.739C227.587 295.063 228.204 287.381 228.731 279.692C229.436 267.962 229.881 256.223 230.069 244.473C230.158 237.631 229.967 230.746 230.125 223.917C230.329 222.072 229.98 212.451 229.95 209.792C229.848 197.716 229.654 185.641 229.374 173.568C229.186 170.869 228.846 161.403 229.09 159.06Z" fill="url(#paint0_linear_49_31)"/>
<path d="M74.4527 73.7679C77.8803 55.6336 74.506 33.8513 89.3854 19.9501C104.124 6.18108 151.709 -9.64581 167.618 7.44897C170.699 10.8153 172.719 15.015 173.428 19.524C174.331 25.5002 172.785 31.5291 172.202 37.4315C171.22 47.4275 168.656 60.3271 168.376 70.22L168.372 70.4896C166.253 89.4712 164.885 108.528 164.262 127.617C164.052 134.322 163.949 141.029 163.953 147.737C163.963 150.586 164.173 158.216 163.867 160.58C163.504 162.616 163.956 168.305 163.89 170.8C163.626 180.634 164.813 192.974 164.309 202.597C164.638 207.399 164.599 212.475 164.74 217.313C164.8 219.386 165.073 223.72 164.905 225.608C133.799 225.684 102.712 224.039 71.7871 220.678C71.1167 217.84 71.1091 208.098 71.0468 204.838C70.939 191.734 71.0669 177.309 70.5436 164.314C67.3622 164.557 61.8905 165.088 58.8344 165.049C51.4314 165.47 42.4149 167.141 34.9184 167.754C30.1909 168.1 24.1778 169.626 19.4642 168.661C9.16729 166.558 1.79698 156.598 1.13256 146.393C-0.0855557 127.674 5.49548 105.438 16.8527 90.4721C28.465 75.1706 45.244 76.4503 62.4274 74.6561C64.2048 74.2919 72.4963 73.8242 74.4527 73.7679Z" fill="url(#paint1_linear_49_31)"/>
<path d="M75.0209 311.413C74.3057 311.36 73.5909 311.308 72.8767 311.248C66.3814 310.705 59.7981 309.818 53.3055 309.254C38.2171 307.946 28.1209 306.239 17.8052 293.735C5.88773 278.38 -0.485282 255.745 0.0288562 236.392C0.282959 226.837 7.59889 216.344 17.4526 215.131C24.048 214.32 33.3302 216.248 40.2259 217.075L71.7871 220.678C102.712 224.039 133.799 225.684 164.905 225.608C170.95 225.147 181.631 225.213 187.867 225.328C191.334 224.814 204.339 224.656 208.241 224.666C212.793 224.102 225.277 223.917 230.125 223.917C229.967 230.746 230.158 237.631 230.069 244.473C229.881 256.222 229.436 267.962 228.731 279.692C228.204 287.381 227.587 295.063 226.889 302.739C226.671 305.145 225.857 312.333 225.949 314.35C220.946 314.943 215.749 314.524 210.72 314.936C202.263 315.144 193.025 315.523 184.594 315.335C180.458 315.474 173.833 315.882 169.931 315.685C170.185 319.402 170.406 323.172 170.805 326.874C171.065 335.242 172.377 346.892 173.576 355.306C175.808 370.971 166.401 383.462 149.903 384.055C130.822 384.741 105.052 378.564 90.0074 366.133C76.9235 355.319 77.1417 340.541 76.0591 324.843C75.63 321.495 74.9932 314.762 75.0209 311.413Z" fill="url(#paint2_linear_49_31)"/>
<path d="M223.336 57.5959L221.454 37.4525C220.472 27.1961 218.02 16.9592 225.247 8.55398C229.95 3.08499 236.68 0.554848 243.832 0.0772921C262.367 -0.766093 290.404 6.40482 304.632 18.3945C317.598 29.3169 316.639 45.1458 318.31 60.3551C318.672 63.4837 319.143 69.8818 319.147 72.9462C326.414 73.7121 333.688 74.428 340.965 75.0937C356.181 76.5607 365.446 77.7181 376.002 91.0429C387.201 105.182 394.775 131.097 393.315 149.1C392.817 155.257 389.449 161.805 384.459 165.474C377.37 170.688 372.274 169.89 364.058 168.72C355.219 167.395 346.36 166.195 337.488 165.121C332.92 164.581 326.256 164.132 322.034 163.447C316.771 162.422 305.094 161.769 299.296 161.311C286.209 160.299 273.098 159.578 259.978 159.149C250.618 158.823 238.381 158.487 229.09 159.06C213.346 159.192 197.52 159.789 181.813 159.854C177.06 160.369 168.814 160.487 163.867 160.579C164.174 158.216 163.963 150.586 163.953 147.737C163.949 141.029 164.052 134.322 164.263 127.617C164.885 108.528 166.253 89.4711 168.372 70.4895C173.006 69.9813 180.142 70.0627 185.145 69.8373C197.939 69.952 211.478 69.2714 224.417 69.166C223.787 66.737 223.665 60.6191 223.336 57.5959Z" fill="url(#paint3_linear_49_31)"/>
</g>
<g opacity="0.24">
<path d="M335.167 219.109C342.204 218.549 349.23 217.873 356.244 217.075C366.741 215.985 376.569 213.661 385.237 221.268C390.648 226.017 393.209 233.284 393.595 240.416C393.931 258.213 387.151 283.152 375.372 296.365C366.962 305.804 357.012 307.939 345.104 308.932C340.454 309.317 336.005 309.97 331.341 310.22C334.205 283.795 337.956 245.06 335.167 219.109Z" fill="url(#paint4_linear_49_31)"/>
<path d="M58.8344 165.048C51.4314 165.47 42.4149 167.141 34.9184 167.754C30.1909 168.1 24.1778 169.626 19.4642 168.661C9.16729 166.558 1.79698 156.598 1.13256 146.393C-0.0855556 127.674 5.49548 105.437 16.8527 90.472C28.465 75.1705 45.244 76.4502 62.4274 74.656C61.9446 82.2939 60.419 91.5276 59.6807 99.5077C58.3687 114.938 57.7175 130.418 57.7293 145.905C57.7507 150.331 57.9205 161.08 58.8344 165.048Z" fill="url(#paint5_linear_49_31)"/>
<path d="M223.336 57.5959L221.454 37.4525C220.472 27.1961 218.02 16.9592 225.247 8.55398C229.95 3.08499 236.68 0.554848 243.832 0.0772921C262.367 -0.766093 290.404 6.40482 304.632 18.3945C317.598 29.3169 316.639 45.1458 318.31 60.3551C318.672 63.4837 319.143 69.8818 319.147 72.9462C297.899 71.0999 276.598 69.9006 255.278 69.3499C246.241 69.0977 233.309 68.7362 224.417 69.166C223.787 66.737 223.665 60.6191 223.336 57.5959Z" fill="url(#paint6_linear_49_31)"/>
<path d="M75.0209 311.413C86.5491 311.951 98.5737 313.308 110.242 314.014C130.112 315.276 150.022 315.833 169.931 315.685C170.185 319.402 170.406 323.173 170.805 326.874C171.065 335.242 172.377 346.892 173.576 355.306C175.808 370.971 166.401 383.462 149.903 384.055C130.822 384.741 105.052 378.564 90.0074 366.133C76.9235 355.319 77.1417 340.541 76.059 324.844C75.6299 321.495 74.9932 314.762 75.0209 311.413Z" fill="url(#paint7_linear_49_31)"/>
</g>
<path d="M323.296 220.035C326.519 219.544 331.842 219.313 335.167 219.109C337.956 245.059 334.205 283.795 331.341 310.22C327.324 310.698 323.299 311.113 319.269 311.462C319.786 308.987 320.551 296.424 320.811 293.013C322.152 276.185 322.976 259.32 323.289 242.443C323.411 236.619 323.774 225.647 323.296 220.035Z" fill="white" fill-opacity="0.24"/>
<path d="M74.4528 73.7678C73.2854 83.7332 72.6697 95.0054 72.1177 105.02C71.2595 118.469 70.7503 131.938 70.5914 145.413C70.5539 148.506 70.2246 161.947 70.5436 164.314C67.3622 164.557 61.8906 165.088 58.8345 165.049C57.9206 161.08 57.7508 150.331 57.7294 145.905C57.7175 130.418 58.3688 114.938 59.6808 99.5077C60.4191 91.5277 61.9447 82.294 62.4275 74.656C64.2049 74.2919 72.4964 73.8242 74.4528 73.7678Z" fill="white" fill-opacity="0.24"/>
<path d="M75.021 311.413C86.5493 311.951 98.5738 313.308 110.242 314.014C130.113 315.276 150.022 315.833 169.931 315.685C170.185 319.402 170.406 323.173 170.805 326.874C162.572 330.341 104.107 326.376 92.7225 325.397C90.3522 325.193 77.6998 323.515 76.5413 323.842L76.0592 324.844C75.6301 321.495 74.9933 314.762 75.021 311.413Z" fill="white" fill-opacity="0.24"/>
<path d="M223.336 57.5957C226.256 56.7151 232.389 56.7124 235.596 56.6419C260.822 56.0882 286.186 57.6913 311.237 60.6146C312.611 60.7751 317.113 61.6284 318.059 61.1087L318.31 60.3549C318.672 63.4836 319.143 69.8816 319.147 72.946C297.899 71.0997 276.598 69.9004 255.278 69.3497C246.241 69.0976 233.309 68.736 224.417 69.1658C223.787 66.7368 223.665 60.6189 223.336 57.5957Z" fill="white" fill-opacity="0.24"/>
<path d="M229.09 159.06C238.381 158.487 250.618 158.823 259.978 159.149C273.098 159.578 286.209 160.299 299.296 161.311C305.094 161.769 316.771 162.422 322.034 163.447C322.396 168.344 322.476 173.097 322.581 178.011C321.137 177.615 311.857 176.95 309.876 176.782C290.378 174.985 270.824 173.898 251.248 173.522C247.797 173.423 232.379 173.054 229.374 173.568C229.186 170.869 228.846 161.403 229.09 159.06Z" fill="white" fill-opacity="0.16"/>
<path d="M164.309 202.597C164.638 207.399 164.599 212.475 164.74 217.313C164.8 219.386 165.073 223.72 164.905 225.608C133.799 225.684 102.712 224.039 71.7871 220.678C71.1168 217.84 71.1092 208.098 71.0469 204.838C71.884 205.979 78.934 206.331 80.7852 206.522C99.4649 208.47 118.213 209.7 136.987 210.201C145.184 210.471 156.623 210.154 164.328 210.754C164.157 208.038 164.15 205.313 164.309 202.597Z" fill="white" fill-opacity="0.16"/>
<path d="M208.241 224.666C212.793 224.102 225.277 223.918 230.125 223.918C229.967 230.746 230.158 237.631 230.069 244.473C229.881 256.223 229.436 267.962 228.731 279.692C228.204 287.381 227.587 295.063 226.889 302.739C226.671 305.145 225.857 312.333 225.949 314.35C220.946 314.943 215.749 314.525 210.72 314.937C211.099 314.393 211.415 307.343 211.573 306.012C214.829 278.785 214.958 252.096 214.869 224.735C212.529 224.774 210.575 224.788 208.241 224.666Z" fill="white" fill-opacity="0.16"/>
<path d="M168.372 70.4896C173.006 69.9814 180.142 70.0628 185.145 69.8374C184.182 70.2899 183.816 70.1887 183.645 71.1709C182.989 74.8918 182.627 79.2966 182.244 83.0346C180.29 101.864 179.222 120.775 179.047 139.704C178.968 144.729 178.563 154.545 178.906 159.195C179.634 159.993 180.382 159.723 181.813 159.855C177.06 160.369 168.814 160.487 163.867 160.58C164.174 158.217 163.963 150.586 163.953 147.737C163.949 141.029 164.052 134.322 164.263 127.617C164.885 108.528 166.253 89.4712 168.372 70.4896Z" fill="white" fill-opacity="0.16"/>
<defs>
<linearGradient id="paint0_linear_49_31" x1="254.075" y1="169.696" x2="289.31" y2="377.378" gradientUnits="userSpaceOnUse">
<stop stop-color="white"/>
<stop offset="1" stop-color="white"/>
</linearGradient>
<linearGradient id="paint1_linear_49_31" x1="137.981" y1="213.697" x2="105.886" y2="5.93555" gradientUnits="userSpaceOnUse">
<stop stop-color="white"/>
<stop offset="1" stop-color="white"/>
</linearGradient>
<linearGradient id="paint2_linear_49_31" x1="207.48" y1="239.536" x2="11.5241" y2="291.863" gradientUnits="userSpaceOnUse">
<stop stop-color="white"/>
<stop offset="1" stop-color="white"/>
</linearGradient>
<linearGradient id="paint3_linear_49_31" x1="177.32" y1="152.696" x2="378.846" y2="87.9722" gradientUnits="userSpaceOnUse">
<stop stop-color="white"/>
<stop offset="1" stop-color="white"/>
</linearGradient>
<linearGradient id="paint4_linear_49_31" x1="396.142" y1="249.713" x2="321.444" y2="269.742" gradientUnits="userSpaceOnUse">
<stop stop-color="white"/>
<stop offset="1" stop-color="white"/>
</linearGradient>
<linearGradient id="paint5_linear_49_31" x1="-1.3386" y1="129.59" x2="68.7003" y2="117.311" gradientUnits="userSpaceOnUse">
<stop stop-color="white"/>
<stop offset="1" stop-color="white"/>
</linearGradient>
<linearGradient id="paint6_linear_49_31" x1="263.57" y1="-2.05111" x2="272.007" y2="66.1797" gradientUnits="userSpaceOnUse">
<stop stop-color="white"/>
<stop offset="1" stop-color="white"/>
</linearGradient>
<linearGradient id="paint7_linear_49_31" x1="124.461" y1="311.413" x2="124.461" y2="384.107" gradientUnits="userSpaceOnUse">
<stop stop-color="white"/>
<stop offset="1" stop-color="white"/>
</linearGradient>
</defs>
</svg>
